<?xml version="1.0" encoding="utf-8"?>
<!-- Generator: Adobe Illustrator 23.0.6, SVG Export Plug-In . SVG Version: 6.00 Build 0)  -->
<svg version="1.1" id="Ebene_1" xmlns="http://www.w3.org/2000/svg" xmlns:xlink="http://www.w3.org/1999/xlink" x="0px" y="0px"
	 viewBox="0 0 427.5 36.5" style="enable-background:new 0 0 427.5 36.5;" xml:space="preserve">
<g>
	<g>
		<path d="M11.2,22.6l-6.3,0v13.9H0L0,0l11,0c8.5,0,10.1,6.8,10.1,10v2.6C21.1,15.9,19.5,22.6,11.2,22.6z M16.1,10.1
			c0-4.5-3.3-5.2-5.2-5.2L5,4.9v12.8l6,0c1.9,0,5.1-0.7,5.1-5.2V10.1z"/>
		<path d="M46.6,36.6l0-16.7l-11.9,0l0,16.7h-5l0-36.6h5l0,14.9l11.9,0l0-14.9l5,0l0,36.6L46.6,36.6z"/>
		<path d="M80.4,36.6l-2.6-9.9h-11l-2.6,9.9h-5.1L68.6,0h7.2l9.7,36.5H80.4z M72.4,5.2L68,21.7h8.6L72.4,5.2z"/>
		<path d="M109.8,36.6l-7-14.9H98v14.9h-5L93,0h11c8.5,0,10.2,6.7,10.2,9.9v1.7c0,2.7-1.2,7.6-6.2,9.4l7.3,15.5H109.8z M109.3,10.1
			c0-4.5-3.4-5.2-5.3-5.2H98v11.8h6c1.9,0,5.2-0.7,5.2-5.1V10.1z"/>
		<path d="M124.3,36.6l0-36.6h5.7l7.4,17.8L144.7,0l5.8,0l0,36.6l-5,0l0-25.7l-6.2,14.8h-4l-6.2-14.9l0,25.7H124.3z"/>
		<path d="M179.5,36.6l-2.6-9.9l-11,0l-2.6,9.9l-5.1,0L167.7,0l7.2,0l9.7,36.6H179.5z M171.4,5.2l-4.4,16.5l8.6,0L171.4,5.2z"/>
		<path d="M191.6,36.6v-4.3L206,4.9l-13.7,0l0-4.9l19.4,0l0,4.2l-14.4,27.5l15.1,0v4.9L191.6,36.6z"/>
		<path d="M225.3,0l0,36.6h-5l0-36.6H225.3z"/>
		<path d="M235.7,36.5l0-36.6L256,0l0,4.9l-15.3,0v9.9l14.2,0v4.9l-14.2,0l0,11.8l15.3,0v4.9L235.7,36.5z"/>
		<path d="M274.8,37c-8.3,0-10.5-6.8-10.5-10.1l0-17.3c0-3.2,2.1-9.9,10.6-9.9c8.2,0,10.6,6.4,10.6,9.9l-5,0c0-4.4-3.8-5.1-5.5-5.1
			c-1.8,0-5.6,0.7-5.6,5.1l0,17.2c0,4.5,3.8,5.3,5.6,5.3c1.7,0,5.6-0.8,5.6-5.3l0-6h-6.3v-4.9l11.3,0l0,11
			C285.5,30.2,283.1,37,274.8,37z"/>
		<path d="M313.8,36.5l-2.6-9.9h-11l-2.6,9.9h-5.1L302,0h7.2l9.7,36.5H313.8z M305.8,5.2l-4.4,16.5h8.6L305.8,5.2z"/>
		<path d="M335.8,37c-6.6,0-10.9-4.4-10.9-10.1l5,0c0,3.3,2.5,5.2,5.8,5.2c3.8,0,6.3-2.3,6.3-5.3c0-2.4-1.3-3.8-3.2-4.9
			c-1.5-0.9-3.8-2.1-8.3-4.4c-2.9-1.5-5-4.7-5-8.4c0-5.5,4.3-9.5,10.3-9.5c6.3,0,10.7,4.2,10.7,9.9h-5c0-3.2-2.4-5-5.6-5
			c-3,0-5.3,1.7-5.3,4.7c0,1.7,1,3.2,2.8,4.1c2.9,1.5,5.5,2.8,7.9,4c3.7,2.1,5.7,5.3,5.7,9.5C347,32.7,342.1,37,335.8,37z"/>
		<path d="M365.2,37c-6.6,0-10.9-4.4-10.9-10.1h5c0,3.3,2.5,5.2,5.8,5.2c3.8,0,6.3-2.3,6.3-5.3c0-2.4-1.3-3.8-3.2-4.9
			c-1.5-0.9-3.8-2.1-8.3-4.4c-2.9-1.5-5-4.7-5-8.4c0-5.5,4.3-9.5,10.3-9.5c6.3,0,10.7,4.2,10.7,9.9h-5c0-3.2-2.4-5-5.6-5
			c-3,0-5.3,1.7-5.3,4.7c0,1.7,1,3.2,2.8,4.1c2.9,1.5,5.5,2.8,7.9,4c3.7,2.1,5.7,5.3,5.7,9.5C376.4,32.7,371.6,37,365.2,37z"/>
		<path d="M385.3,36.5l0-36.6l20.3,0l0,4.9l-15.3,0v9.9l14.2,0v4.9l-14.2,0l0,11.8l15.3,0v4.9L385.3,36.5z"/>
	</g>
	<g>
		<path d="M420.5,14.2c-4,0-7-3.1-7-7.1s3-7.1,7-7.1c4,0,7,3.1,7,7.1S424.5,14.2,420.5,14.2z M420.5,1.2c-3.4,0-5.7,2.5-5.7,5.9
			c0,3.4,2.3,5.9,5.7,5.9c3.4,0,5.7-2.5,5.7-5.9C426.2,3.7,423.9,1.2,420.5,1.2z M422,10.7L420.8,8h-1.5v2.7H418V3.3h2.7
			c1.4,0,2.6,0.8,2.6,2.3c0,1-0.4,1.7-1.3,2.2l1.4,2.9L422,10.7z M420.8,4.5h-1.5v2.3h1.5c0.8,0,1.3-0.4,1.3-1.2
			C422.1,4.9,421.5,4.5,420.8,4.5z"/>
	</g>
</g>
</svg>
